<svg width="16" height="14" viewBox="0 0 16 14" fill="none" xmlns="http://www.w3.org/2000/svg">
<path d="M3.0401 5.24702L3.4751 6.00702C3.7521 6.49202 3.8901 6.73402 3.8901 7.00002C3.8901 7.26602 3.7521 7.50802 3.4751 7.99202L3.0401 8.75302C1.8021 10.92 1.1831 12.003 1.6651 12.541C2.1481 13.078 3.2921 12.578 5.5781 11.578L11.8541 8.83202C13.6491 8.04702 14.5471 7.65402 14.5471 7.00002C14.5471 6.34602 13.6491 5.95302 11.8541 5.16802L5.5781 2.42202C3.2921 1.42202 2.1481 0.922019 1.6651 1.45902C1.1821 1.99602 1.8021 3.07902 3.0401 5.24702Z" stroke="#ADADAD" stroke-width="2"/>
</svg>
